<svg width="200" height="60" viewBox="0 0 200 60" fill="none" xmlns="http://www.w3.org/2000/svg">
  <!-- Background circle for the icon -->
  <circle cx="30" cy="30" r="25" fill="#3B82F6" opacity="0.1"/>
  
  <!-- Main chat bubble -->
  <path d="M20 15C20 12.2386 22.2386 10 25 10H35C37.7614 10 40 12.2386 40 15V25C40 27.7614 37.7614 30 35 30H30L25 35V30H25C22.2386 30 20 27.7614 20 25V15Z" fill="#3B82F6"/>
  
  <!-- AI/robot eye dots -->
  <circle cx="27" cy="20" r="2" fill="white"/>
  <circle cx="33" cy="20" r="2" fill="white"/>
  
  <!-- Smile line -->
  <path d="M27 25Q30 28 33 25" stroke="white" stroke-width="1.5" stroke-linecap="round" fill="none"/>
  
  <!-- Email symbol -->
  <rect x="45" y="15" width="20" height="12" rx="2" fill="#10B981" stroke="#10B981" stroke-width="1"/>
  <path d="M45 17L55 23L65 17" stroke="white" stroke-width="1.5" stroke-linecap="round" stroke-linejoin="round"/>
  
  <!-- Text "ChatBot" -->
  <text x="75" y="25" font-family="Arial, sans-serif" font-size="16" font-weight="bold" fill="#1F2937">ChatBot</text>
  
  <!-- Subtle accent line -->
  <line x1="75" y1="32" x2="140" y2="32" stroke="#3B82F6" stroke-width="2" stroke-linecap="round"/>
</svg> 